<svg xmlns="http://www.w3.org/2000/svg"
     xmlns:xlink="http://www.w3.org/1999/xlink"
     width="130" height="30" viewBox="0 0 260 60"
     version="1.1" >
  <defs>
  <g id="vitalius-p" transform="translate(-140,-265)" stroke="black" fill="black" stroke-width="1">
      <title>Logo</title>
      <desc>Logo image</desc>
      <path
               d="m 143.98437,309.50507 0,-42.65625 14.41407,0 q 7.52929,0 11.74804,2.92968 4.21875,2.92969 4.21875,8.75977 0,2.95898 -1.58203,5.30273 -1.55273,2.31446 -4.54101,3.48633 3.83789,0.82031 5.74218,3.51563 1.9336,2.69531 1.9336,6.24023 0,6.12305 -4.04297,9.28711 -4.04297,3.13477 -11.45508,3.13477 l -16.43555,0 z m 8.55469,-18.86719 0,12.30469 7.88086,0 q 3.39844,0 5.18555,-1.46485 1.78711,-1.49414 1.78711,-4.39453 0,-3.13476 -1.52344,-4.77539 -1.52344,-1.66992 -4.80469,-1.66992 l -8.52539,0 z m 0,-5.91797 6.15235,0 q 3.42773,0 5.27343,-1.40625 1.84571,-1.40625 1.84571,-4.10156 0,-2.95899 -1.875,-4.36524 -1.84571,-1.40625 -5.53711,-1.40625 l -5.85938,0 0,11.2793 z"
               id="1" />
            <path
               d="m 199.76172,277.80585 8.52539,0 0,31.69922 -8.52539,0 0,-19.33594 -0.17578,-0.0293 -10.3418,19.36524 -8.55469,0 0,-31.69922 8.55469,0 0,19.27734 0.17578,0.0293 10.3418,-19.30664 z"
               id="2" />
            <path
               d="m 240.53906,284.33905 -10.13672,0 0,25.16602 -8.58398,0 0,-25.16602 -9.99024,0 0,-6.5332 28.71094,0 0,6.5332 z"
               id="3" />
            <path
               d="m 262.12695,309.50507 q -0.46875,-1.08399 -0.82031,-2.28516 -0.32227,-1.20117 -0.46875,-2.46094 -1.31836,2.31446 -3.48633,3.83789 -2.13867,1.52344 -5.12695,1.52344 -4.98047,0 -7.67578,-2.54883 -2.69531,-2.57812 -2.69531,-7.00195 0,-4.6582 3.57421,-7.20703 3.60352,-2.57813 10.48829,-2.57813 l 4.77539,0 0,-2.51953 q 0,-2.28515 -1.20118,-3.54492 -1.20117,-1.25977 -3.54492,-1.25977 -2.08008,0 -3.22265,1.02539 -1.11329,0.9961 -1.11329,2.78321 l -8.26171,-0.0293 -0.0293,-0.17578 q -0.20508,-4.01367 3.48633,-6.91406 3.6914,-2.92969 9.69726,-2.92969 5.6836,0 9.22852,2.90039 3.54492,2.87109 3.54492,8.20313 l 0,13.0957 q 0,2.22656 0.32227,4.18945 0.35156,1.96289 1.08398,3.89649 l -8.55469,0 z m -7.82226,-5.71289 q 2.25586,0 4.01367,-1.11329 1.75781,-1.11328 2.37305,-2.57812 l 0,-4.48242 -4.77539,0 q -2.72461,0 -4.13086,1.37695 -1.40625,1.34766 -1.40625,3.28125 0,1.58203 1.05468,2.54883 1.05469,0.9668 2.8711,0.9668 z"
               id="4" />
            <path
               d="m 302.20117,277.80585 0,31.69922 -8.52539,0 0,-25.07813 -7.61719,0 0,6.88477 q 0,9.375 -2.87109,13.79882 -2.87109,4.39454 -9.81445,4.39454 l -1.37696,0 -0.0879,-6.73829 0.90821,-0.0293 q 2.92968,0 3.80859,-2.40235 0.87891,-2.40234 0.87891,-9.02343 l 0,-13.50586 24.69726,0 z"
               id="5" />
            <path
               d="m 326.30859,277.80585 8.52539,0 0,31.69922 -8.52539,0 0,-19.33594 -0.17578,-0.0293 -10.34179,19.36524 -8.55469,0 0,-31.69922 8.55469,0 0,19.27734 0.17578,0.0293 10.34179,-19.30664 z"
               id="6" />
            <path
               d="m 351.67578,296.20428 0.35156,1.75782 0.17578,0 6.06446,-20.15625 9.19922,0 -12.86133,36.44531 q -1.34766,3.39844 -3.66211,5.71289 -2.31445,2.34375 -6.94336,2.34375 -1.08398,0 -2.02148,-0.17578 -0.90821,-0.17578 -2.22657,-0.49805 l 0.9961,-6.24023 q 0.38086,0.0586 0.82031,0.11719 0.43945,0.0586 0.79101,0.0586 2.10938,0 3.25196,-1.05469 1.14258,-1.02539 1.75781,-2.57812 l 0.99609,-2.46094 -11.25,-31.66992 9.19922,0 5.36133,18.39843 z"
               id="7" />
            <path
               d="m 382.78516,303.5578 q 2.28515,0 3.66211,-1.31836 1.37695,-1.34766 1.37695,-3.57422 l 7.76367,0 0.0879,0.17578 q 0.11719,4.80469 -3.63281,8.05664 -3.7207,3.22266 -9.25781,3.22266 -7.08985,0 -10.92774,-4.48242 -3.83789,-4.48242 -3.83789,-11.51367 l 0,-0.87891 q 0,-7.00195 3.80859,-11.51367 3.8379,-4.51172 10.92774,-4.51172 5.85937,0 9.43359,3.33984 3.60352,3.33985 3.48633,8.78907 l -0.0586,0.17578 -7.79297,0 q 0,-2.46094 -1.34766,-4.07227 -1.34765,-1.64062 -3.7207,-1.64062 -3.39844,0 -4.80469,2.63672 -1.37695,2.63671 -1.37695,6.79687 l 0,0.87891 q 0,4.24804 1.37695,6.85547 1.40625,2.57812 4.83399,2.57812 z"
               id="8"  />
    </g>
    </defs>
    <use id="vitalius" xlink:href="#vitalius-p" />  
</svg>
